<svg width="450" height="84" viewBox="0 0 450 84" fill="none" xmlns="http://www.w3.org/2000/svg">
<g clip-path="url(#clip0_6267_433222)">
<g opacity="0.3">
<path opacity="0.7" d="M200.874 13.3734C200.768 12.7007 200.428 12.0689 199.897 11.5599C199.367 11.0509 198.659 10.6824 197.881 10.501C197.095 10.3197 196.267 10.3372 195.496 10.5478C194.725 10.7584 194.038 11.1563 193.536 11.6828C193.281 10.9573 192.793 10.2963 192.135 9.77563C191.477 9.25497 190.663 8.88056 189.786 8.69921C188.908 8.51785 187.974 8.52955 187.104 8.74016C186.233 8.95076 185.434 9.34272 184.797 9.88678C184.167 8.63485 183.035 7.59939 181.592 6.96757C180.148 6.32991 178.485 6.13101 176.886 6.39426C175.287 6.66337 173.843 7.38293 172.81 8.4301C171.777 9.48312 171.211 10.7994 171.211 12.1566C171.211 12.572 171.26 12.9815 171.367 13.391L200.874 13.3734Z" fill="url(#paint0_linear_6267_433222)"/>
<g opacity="0.29">
<path opacity="0.29" d="M16.5843 30.9307H11.1641L11.4046 2.93205L16.5843 0.726562V30.9307Z" fill="url(#paint1_linear_6267_433222)"/>
<path opacity="0.29" d="M26.6909 32.7852H16.2891V0.726562L26.6909 3.26551V32.7852Z" fill="url(#paint2_linear_6267_433222)"/>
</g>
<g opacity="0.23">
<g opacity="0.5">
<path opacity="0.5" d="M187.445 45.5701H180.758V15.8048L187.445 14.6406V45.5701Z" fill="url(#paint3_linear_6267_433222)"/>
<path opacity="0.5" d="M197.445 56.8316H187.453V14.6406L197.445 17.2264V56.8316Z" fill="url(#paint4_linear_6267_433222)"/>
</g>
</g>
<g opacity="0.35">
<path opacity="0.35" d="M162.477 45.2965H167.946V21.6562L162.477 22.3875V45.2965Z" fill="url(#paint5_linear_6267_433222)"/>
<path opacity="0.35" d="M177.937 46.9404H167.953V21.6562L177.301 24.7159L177.937 46.9404Z" fill="url(#paint6_linear_6267_433222)"/>
</g>
<path opacity="0.27" d="M210.593 7.07812L205.484 7.96149V75.6589H210.593V84.2586H218.214V9.04961L210.593 7.07812Z" fill="url(#paint7_linear_6267_433222)"/>
<path opacity="0.11" d="M233.284 24.0391L228.211 24.9224V86.7581H233.284V95.2875H240.849V25.9988L233.284 24.0391Z" fill="url(#paint8_linear_6267_433222)"/>
<g opacity="0.53">
<g opacity="0.5">
<path opacity="0.5" d="M104.272 40.3723H97.5781V5.33605L104.272 4.17188V40.3723Z" fill="url(#paint9_linear_6267_433222)"/>
<path opacity="0.5" d="M114.25 51.628H104.266V4.17188L114.25 6.75762V51.628Z" fill="url(#paint10_linear_6267_433222)"/>
</g>
</g>
<g opacity="0.4">
<path opacity="0.4" d="M38.5237 48.9521H35.1484V9.57505L38.5237 7.63281V48.9521Z" fill="url(#paint11_linear_6267_433222)"/>
<path opacity="0.4" d="M38.5234 7.48438L46.0382 9.38566V48.4936H38.5234V7.48438Z" fill="url(#paint12_linear_6267_433222)"/>
</g>
<g opacity="0.29">
<path opacity="0.29" d="M67.514 29.2041H62.0938L62.3343 1.20549L67.514 -1V29.2041Z" fill="url(#paint13_linear_6267_433222)"/>
<path opacity="0.29" d="M77.6206 31.0586H67.2188V-1L77.6206 1.53895V31.0586Z" fill="url(#paint14_linear_6267_433222)"/>
</g>
<path d="M52.3978 32.9022H47.4375V5.76936L52.3978 4.42969V32.9022Z" fill="url(#paint15_linear_6267_433222)"/>
<path d="M52.3984 4.42969L64.2367 7.31964V32.6857H52.3984V4.42969Z" fill="url(#paint16_linear_6267_433222)"/>
<path d="M84.2969 35.2008H89.7596V11.5547L84.2969 12.2918V35.2008Z" fill="url(#paint17_linear_6267_433222)"/>
<path d="M99.7578 36.8388H89.7734V11.5547L99.1209 14.6201L99.7578 36.8388Z" fill="url(#paint18_linear_6267_433222)"/>
<g opacity="0.64">
<g opacity="0.4">
<path opacity="0.4" d="M132.297 44.751H128.922V5.37974L132.297 3.4375V44.751Z" fill="url(#paint19_linear_6267_433222)"/>
<path opacity="0.4" d="M132.297 3.28906L139.812 5.19035V44.2925H132.297V3.28906Z" fill="url(#paint20_linear_6267_433222)"/>
</g>
</g>
<g opacity="0.54">
<path opacity="0.54" d="M143.093 48.5242H138.133V9.69124L143.093 8.35156V48.5242Z" fill="url(#paint21_linear_6267_433222)"/>
<path opacity="0.54" d="M143.094 8.35156L154.925 11.2357V48.3078H143.094V8.35156Z" fill="url(#paint22_linear_6267_433222)"/>
</g>
<path opacity="0.39" d="M230.324 62.9287L219.406 60.2318C218.981 60.1265 218.535 60.0739 218.082 60.0739L212.45 60.4307L202.572 57.2249C202.147 57.0845 201.694 57.0143 201.248 57.0143L195.163 57.5174V51.6907C195.163 51.053 194.639 50.4855 193.861 50.2983L176.843 46.5426C176.178 46.3788 175.477 46.2969 174.784 46.2969L162.549 47.1744C161.523 47.1744 160.695 47.8296 160.695 48.6369V74.6465H175.838H195.17V73.5701H201.928H214.325V72.6575H218.762H231.159V63.8238C231.159 63.4143 230.819 63.0516 230.324 62.9287Z" fill="url(#paint23_linear_6267_433222)"/>
<path opacity="0.68" d="M149.427 42.2656L141.579 42.757C140.921 42.757 140.391 43.1782 140.391 43.693V54.8434H150.106H162.503V46.0097C162.503 45.6002 162.164 45.2375 161.668 45.1146L150.75 42.4177C150.318 42.3183 149.873 42.2656 149.427 42.2656Z" fill="url(#paint24_linear_6267_433222)"/>
<path opacity="0.4" d="M164.359 50.5625L153.144 51.2704C152.202 51.2704 151.445 51.8027 151.445 52.4521V73.53H165.329H183.054V54.9384C183.054 54.4236 182.573 53.9614 181.858 53.8093L164.359 50.5625Z" fill="url(#paint25_linear_6267_433222)"/>
<path d="M165.521 50.5625V73.53L151.143 75.0452L150.414 51.44L165.521 50.5625Z" fill="url(#paint26_linear_6267_433222)"/>
<path d="M161.594 58.7651C161.594 58.572 161.841 58.4141 162.139 58.4141L161.594 58.7651Z" fill="url(#paint27_radial_6267_433222)"/>
<path d="M138.825 50.7188L127.588 51.5612C126.647 51.5612 125.883 52.193 125.883 52.971V78.0446H139.787H157.534V55.9195C157.534 55.3052 157.053 54.7612 156.338 54.574L140.707 50.9528C140.099 50.8006 139.462 50.7188 138.825 50.7188Z" fill="url(#paint28_linear_6267_433222)"/>
<path d="M123.432 41.7656L116.865 42.1985C116.313 42.1985 115.867 42.5671 115.867 43.0234V52.7989H123.998H134.371V45.0534C134.371 44.6965 134.088 44.3748 133.671 44.2695L124.535 41.906C124.175 41.8124 123.807 41.7656 123.432 41.7656Z" fill="url(#paint29_linear_6267_433222)"/>
<path d="M129.739 51.1016L118.502 51.944C117.561 51.944 116.797 52.5758 116.797 53.3539V78.4274H130.701H148.448V56.3023C148.448 55.688 147.967 55.144 147.252 54.9568L129.739 51.1016Z" fill="url(#paint30_linear_6267_433222)"/>
<path d="M129.743 51.1016V78.4274L116.539 80.2292L120.728 51.7802L129.743 51.1016Z" fill="url(#paint31_linear_6267_433222)"/>
<path d="M138.955 59.8374L133.251 58.7785C132.331 58.6089 131.461 59.2173 131.461 60.0363V78.429H140.129V61.0952C140.129 60.4868 139.641 59.9603 138.955 59.8374Z" fill="url(#paint32_linear_6267_433222)"/>
<path d="M140.547 60.7592C140.547 60.1567 140.037 59.6302 139.315 59.5015L133.336 58.4426C132.367 58.2729 131.461 58.8813 131.461 59.7004V60.0397C131.461 59.2207 132.331 58.6122 133.251 58.7819L138.955 59.8408C139.641 59.9695 140.129 60.4901 140.129 61.0985V78.4324H140.547V60.7592Z" fill="url(#paint33_linear_6267_433222)"/>
<path d="M138.955 59.8374L133.251 58.7785C132.331 58.6089 131.461 59.2173 131.461 60.0363V65.9274V78.429H140.129V62.3763V61.0952C140.129 60.4868 139.641 59.9603 138.955 59.8374Z" fill="url(#paint34_linear_6267_433222)"/>
<path opacity="0.25" d="M134.376 64.9725L140.129 62.375V66.2712L131.461 70.2493V66.3121L134.376 64.9725Z" fill="url(#paint35_linear_6267_433222)"/>
<path opacity="0.25" d="M131.461 73.4488L140.129 69.5V71.1029L131.461 75.2624V73.4488Z" fill="url(#paint36_linear_6267_433222)"/>
<path d="M126.141 60.8529C126.141 60.6247 126.367 60.4375 126.643 60.4375L126.141 60.8529Z" fill="url(#paint37_radial_6267_433222)"/>
<path d="M9.73572 31.6875L-0.942078 33.4367C-1.83366 33.4367 -2.5625 34.7413 -2.5625 36.3559V88.3341H10.6556H27.525V42.4692C27.525 41.1939 27.2844 35.9405 26.6051 35.5603L9.73572 31.6875Z" fill="url(#paint38_linear_6267_433222)"/>
<path d="M117.793 37.0724L69.2799 25.536C67.3764 25.0856 65.3951 24.8516 63.4067 24.8516L28.5358 26.5422C25.6205 26.5422 23.25 28.3382 23.25 30.5554V36.1949C24.0567 35.6158 25.2525 35.569 26.6041 35.569L63.3997 33.8783C65.3951 33.8783 67.3976 34.0538 69.4285 34.3989L117.786 43.139C119.994 43.6655 121.494 45.2158 121.494 46.9708V40.9043C121.501 39.1492 119.994 37.5989 117.793 37.0724Z" fill="url(#paint39_linear_6267_433222)"/>
<path d="M117.793 37.5568L69.2799 26.0204C67.3764 25.5699 65.3951 25.3359 63.4067 25.3359L28.5358 27.0266C25.6205 27.0266 23.25 28.8226 23.25 31.0398V36.6793C24.0567 36.1001 25.2525 36.0533 26.6041 36.0533L63.3997 34.3627C65.3951 34.3627 67.3976 34.5382 69.4285 34.8833L117.786 43.6234C119.994 44.1499 121.494 45.7002 121.494 47.4552V41.3886C121.501 39.6336 119.994 38.0833 117.793 37.5568Z" fill="url(#paint40_linear_6267_433222)"/>
<path d="M117.864 43.6513C117.815 43.6455 117.765 43.6279 117.709 43.6162L69.4285 34.8878C67.4189 34.5485 65.4446 34.373 63.4775 34.3672C63.428 34.3672 63.3714 34.3672 63.3218 34.373L26.6748 36.0579C26.6253 36.0579 26.5828 36.0637 26.5333 36.0637C25.4507 36.0637 24.4671 36.1047 23.717 36.4323C23.4269 36.5551 23.25 36.7891 23.25 37.0407V43.9906C23.25 44.4528 23.8232 44.7921 24.4105 44.6692C25.0332 44.5405 25.762 44.5171 26.5404 44.5171C26.5899 44.5171 26.6324 44.5171 26.6819 44.5113L63.336 42.8264C63.3855 42.8264 63.4421 42.8206 63.4916 42.8206C65.4588 42.8264 67.3198 42.9493 69.4426 43.2126L117.617 49.519C117.751 49.5365 117.893 49.5658 118.02 49.6009C120.1 50.1742 121.508 51.6777 121.508 53.3742V47.4597C121.494 45.7281 121.494 44.1895 117.864 43.6513Z" fill="url(#paint41_linear_6267_433222)"/>
<path d="M117.786 49.5499L69.4285 43.2201C67.2773 42.9568 65.388 42.8281 63.3997 42.8281L26.6041 44.5188C25.2525 44.5188 24.0496 44.5656 23.25 45.1448V84.7851L66.4141 83.9427H121.501V53.3759C121.494 51.6208 121.494 50.0764 117.786 49.5499Z" fill="url(#paint42_linear_6267_433222)"/>
<path d="M118.889 54.4224C118.889 52.1818 116.957 52.0063 116.957 52.0063C116.957 52.0063 85.4967 47.9522 79.7014 47.4608C76.7648 47.2092 75.2293 47.8703 74.4297 48.5781C75.3354 48.0809 76.7648 47.7357 79.0362 47.9288C84.8315 48.4202 116.292 52.4743 116.292 52.4743C116.292 52.4743 118.224 52.644 118.224 54.8904C118.224 56.9379 118.224 76.6177 118.224 79.5954L118.783 79.5252C118.91 79.6598 119.172 79.5837 119.172 79.4082C119.129 75.9625 118.889 56.4699 118.889 54.4224Z" fill="url(#paint43_linear_6267_433222)"/>
<path d="M116.296 52.4744C116.296 52.4744 84.8354 48.4203 79.0401 47.9289C76.7687 47.7358 75.3393 48.0868 74.4336 48.5783C73.6552 49.2686 73.5703 49.9998 73.5703 49.9998V80.3385L89.6967 83.3279L118.22 78.5074C118.22 75.5355 118.22 56.9381 118.22 54.8847C118.227 52.6441 116.296 52.4744 116.296 52.4744Z" fill="url(#paint44_linear_6267_433222)"/>
<path d="M30.4188 47.4585C30.4188 47.4585 56.0625 46.3587 60.4072 46.3587C61.6526 46.3587 62.5513 46.6395 63.1952 47.0315C62.5442 46.4231 61.5111 45.9375 59.8482 45.9375C55.5035 45.9375 29.8598 47.0373 29.8598 47.0373C29.8598 47.0373 26.7109 46.9086 26.7109 48.9796C26.7109 51.0505 26.7109 85.9464 26.7109 85.9464L27.2699 85.9405C27.2699 82.4363 27.2699 51.3196 27.2699 49.4008C27.2629 47.3298 30.4188 47.4585 30.4188 47.4585Z" fill="url(#paint45_linear_6267_433222)"/>
<path d="M64.2969 49.302C64.2969 49.302 64.2616 48.015 63.2143 47.0321C62.5704 46.6343 61.6717 46.3594 60.4263 46.3594C56.0816 46.3594 30.4379 47.4592 30.4379 47.4592C30.4379 47.4592 27.2891 47.3305 27.2891 49.4014C27.2891 51.3203 27.2891 82.1503 27.2891 85.6546L64.2969 82.8523C64.212 82.6534 64.2969 49.302 64.2969 49.302Z" fill="url(#paint46_linear_6267_433222)"/>
<path d="M97.3672 50.0781V82.9733L98.2729 82.9323V50.1893L97.3672 50.0781Z" fill="#00AEEF"/>
<path d="M43.5391 46.9687V83.134H44.4943V46.9219L43.5391 46.9687Z" fill="#00AEEF"/>
<path d="M64.2364 64.1719C63.7694 64.1836 63.3307 64.1894 62.9769 64.1894C58.4128 64.1894 31.46 64.868 31.46 64.868C31.46 64.868 28.1484 64.7393 28.1484 66.8103C28.1484 67.6995 28.1484 78.9376 28.1484 85.1036L64.2647 83.7814C64.2294 83.682 64.2294 71.4728 64.2364 64.1719Z" fill="url(#paint47_linear_6267_433222)"/>
<path d="M89.6881 84.2667L117.497 82.9563C117.497 78.791 117.497 70.4137 117.497 69.5654C117.497 67.3248 115.565 67.1493 115.565 67.1493C115.565 67.1493 84.1051 64.7859 78.3098 64.2945C77.1564 64.195 75.26 64.0546 73.5547 64.0078V83.4887L89.6881 84.2667Z" fill="url(#paint48_linear_6267_433222)"/>
<path d="M108.971 44.4726L118.736 46.2627C119.005 46.3095 119.189 46.4908 119.189 46.7014V48.0587C119.189 48.3453 118.842 48.5559 118.474 48.4974L108.709 46.9413C108.433 46.9003 108.242 46.7131 108.242 46.5025V44.9172C108.235 44.6188 108.596 44.4082 108.971 44.4726Z" fill="#398EDD"/>
<path d="M72.9007 38.7945L82.6657 40.5847C82.9346 40.6315 83.1186 40.8128 83.1186 41.0234V42.3807C83.1186 42.6673 82.7718 42.8779 82.4039 42.8194L72.6389 41.2633C72.3629 41.2223 72.1719 41.0351 72.1719 40.8245V39.2392C72.1719 38.9408 72.5257 38.7243 72.9007 38.7945Z" fill="#398EDD"/>
<path d="M73.5703 82.9793C100.58 82.2012 118.22 78.5156 118.22 78.5156V82.6575L73.5703 84.7284V82.9793Z" fill="#516DAD"/>
<path d="M43.5391 47.8169V84.2748L44.4943 83.9472V46.9219L43.5391 47.8169Z" fill="url(#paint49_linear_6267_433222)"/>
<path opacity="0.2" d="M43.5335 48.9219L27.2656 61.8974C27.2656 63.6407 27.2656 65.4309 27.2656 67.1625L43.5335 53.9705V48.9219Z" fill="url(#paint50_linear_6267_433222)"/>
<path opacity="0.2" d="M43.5335 59.9219L27.2656 72.9384C27.2656 73.5585 27.2656 74.1435 27.2656 74.6875L43.5335 61.5424V59.9219Z" fill="url(#paint51_linear_6267_433222)"/>
<path opacity="0.2" d="M63.1864 47.0425C63.0095 46.9372 62.8185 46.8378 62.6062 46.75L44.4844 60.9482V69.2086C44.4844 69.2086 59.5352 57.5552 64.262 53.8169C64.2691 51.1142 64.2762 49.3124 64.2762 49.3124C64.2762 49.3124 64.2408 48.0253 63.1864 47.0425Z" fill="url(#paint52_linear_6267_433222)"/>
<path opacity="0.2" d="M44.4844 76.5339L64.2408 59.1415L64.2479 58.8256C64.2479 58.2933 64.2479 57.7668 64.2479 57.2578L44.4844 73.1467V76.5339Z" fill="url(#paint53_linear_6267_433222)"/>
<path d="M97.3672 50.0781V81.2592L98.2729 81.2182V50.1834L97.3672 50.0781Z" fill="url(#paint54_linear_6267_433222)"/>
<path opacity="0.2" d="M97.3672 50.0887L91.5931 49.375L73.5703 61.2975V68.4171L97.3672 51.2002V50.0887Z" fill="url(#paint55_linear_6267_433222)"/>
<path opacity="0.2" d="M97.3672 59.6562L73.5703 77.3645V79.9269L75.679 79.8391L97.3672 62.2712V59.6562Z" fill="url(#paint56_linear_6267_433222)"/>
<path opacity="0.2" d="M98.2656 67.0852L116.281 52.4833L110.988 51.8047L98.2656 61.4632V67.0852Z" fill="url(#paint57_linear_6267_433222)"/>
<path opacity="0.2" d="M98.2656 73.5089L118.213 57.2807C118.213 56.6489 118.213 56.1107 118.213 55.6953L98.2656 71.789V73.5089Z" fill="url(#paint58_linear_6267_433222)"/>
<path opacity="0.2" d="M98.2656 78.7894L108.979 78.14L118.213 69.2361C118.213 66.3228 118.213 63.1345 118.213 60.4844L98.2656 77.5433V78.7894Z" fill="url(#paint59_linear_6267_433222)"/>
<path d="M65.7266 22.5729V10.3696C65.7266 9.55646 67.7432 8.88954 68.6631 9.1645L119.59 24.7024C120.106 24.8545 120.439 25.2698 120.432 25.7437L121.606 35.0337C121.599 35.7825 120.071 36.9525 118.663 36.5196L66.7243 23.6786C66.1299 23.5324 65.7266 23.0878 65.7266 22.5729Z" fill="#3064B3"/>
<path d="M67.125 21.9695V10.4389C67.125 9.63163 68.0873 9.06417 69.0072 9.33327L120.868 24.76C121.377 24.9121 121.717 25.3275 121.71 25.8013L121.625 34.8163C121.618 35.5651 120.769 36.1151 119.941 35.9103L68.1086 23.081C67.5213 22.9289 67.125 22.4843 67.125 21.9695Z" fill="#0050B3"/>
<path d="M70.5652 15.5781L72.2988 16.0754L72.2705 21.2118L75.4123 22.0249L75.4052 23.3237L70.5156 22.0893L70.5652 15.5781ZM75.9288 20.2758C75.9288 19.7668 76.035 19.3397 76.2331 18.9829C76.4312 18.6319 76.7143 18.3569 77.0681 18.1756C77.4219 17.9884 77.8394 17.8889 78.3205 17.8772C78.8017 17.8655 79.3183 17.9357 79.8844 18.0995C80.4434 18.2575 80.9528 18.4798 81.4199 18.7664C81.8798 19.0472 82.2831 19.3748 82.6157 19.7492C82.9483 20.1237 83.2101 20.5273 83.3941 20.9719C83.5781 21.4165 83.6771 21.8845 83.6771 22.3701C83.6771 22.8557 83.5922 23.271 83.4082 23.622C83.2243 23.9672 82.9695 24.2421 82.6299 24.4352C82.2973 24.6282 81.894 24.7452 81.434 24.7803C80.967 24.8154 80.4504 24.7628 79.8914 24.6224C79.3253 24.482 78.8017 24.2714 78.3205 23.9964C77.8394 23.7215 77.4148 23.3939 77.061 23.0136C76.7072 22.6334 76.4241 22.2121 76.226 21.7441C76.0279 21.2703 75.9288 20.7789 75.9288 20.2758ZM77.6271 20.7321C77.6271 21.0304 77.6837 21.3112 77.7898 21.5862C77.896 21.8611 78.0516 22.1127 78.2498 22.3467C78.4479 22.5807 78.6885 22.7796 78.9645 22.9551C79.2404 23.1248 79.5518 23.2535 79.8914 23.3412C80.2311 23.429 80.5354 23.4582 80.8042 23.429C81.0731 23.3997 81.3066 23.3237 81.4977 23.195C81.6888 23.0663 81.8373 22.8966 81.9364 22.686C82.0355 22.4754 82.085 22.2238 82.085 21.9372C82.085 21.6564 82.0355 21.3814 81.9293 21.1065C81.8232 20.8374 81.6817 20.5858 81.4835 20.3577C81.2925 20.1295 81.059 19.9248 80.7901 19.7551C80.5212 19.5796 80.2169 19.445 79.8773 19.3514C79.5376 19.2578 79.2334 19.2227 78.9574 19.2403C78.6814 19.2637 78.4408 19.3339 78.2427 19.4567C78.0446 19.5796 77.8889 19.7492 77.7828 19.9716C77.6837 20.188 77.6271 20.4454 77.6271 20.7321ZM84.6819 19.6322L86.6845 20.2056L89.4937 25.0728L89.5149 25.0787L89.4724 21.0012L90.8735 21.4048L90.9443 27.2315L89.1045 26.7694L86.2033 21.7792L86.1821 21.7734L86.2104 26.044L84.7244 25.6696L84.6819 19.6322ZM97.6595 28.5303C97.2844 28.6239 96.8882 28.6648 96.4777 28.6414C96.0603 28.6239 95.6357 28.5595 95.1899 28.4484C94.7158 28.3314 94.2842 28.15 93.8808 27.9101C93.4775 27.6644 93.1237 27.3778 92.8194 27.0385C92.5151 26.6992 92.2816 26.3189 92.1118 25.8977C91.942 25.4765 91.85 25.0319 91.8429 24.5697C91.8358 24.1076 91.9137 23.7098 92.0764 23.3822C92.2392 23.0546 92.4656 22.803 92.7557 22.6217C93.0459 22.4461 93.3926 22.3408 93.7888 22.3174C94.1851 22.294 94.6167 22.3467 95.0838 22.4813C95.5579 22.6158 95.9966 22.7972 96.3999 23.0195C96.7962 23.2418 97.1429 23.5226 97.4472 23.8736L96.5556 24.5697C96.3787 24.3474 96.1735 24.1602 95.947 24.0023C95.7206 23.8502 95.4446 23.7273 95.105 23.6337C94.822 23.5518 94.5672 23.5284 94.3408 23.5518C94.1143 23.5811 93.9162 23.6513 93.7535 23.7683C93.5907 23.8853 93.4633 24.0491 93.3784 24.248C93.2935 24.4527 93.2511 24.6867 93.2581 24.95C93.2652 25.2191 93.3077 25.4824 93.3997 25.7281C93.4916 25.9738 93.6261 26.2078 93.7888 26.4125C93.9587 26.6231 94.1568 26.7986 94.3903 26.9507C94.6238 27.1028 94.8786 27.214 95.1616 27.29C95.4517 27.3661 95.6994 27.3953 95.9046 27.3895C96.1098 27.3836 96.2725 27.3602 96.3928 27.331L96.3787 26.4125L95.3102 26.1317L95.289 24.9792L97.5958 25.6052L97.6595 28.5303ZM102.358 26.1025C102.238 25.927 102.089 25.7749 101.912 25.652C101.735 25.5292 101.537 25.4297 101.304 25.3654C101.077 25.301 100.865 25.2835 100.667 25.3186C100.469 25.3537 100.306 25.4239 100.164 25.5409C100.023 25.6579 99.9096 25.8158 99.8318 26.0089C99.754 26.2019 99.7186 26.4301 99.7257 26.6875C99.7328 26.9507 99.7752 27.1964 99.8672 27.4363C99.9521 27.6761 100.072 27.8926 100.214 28.0857C100.363 28.2846 100.532 28.4484 100.723 28.5888C100.914 28.7292 101.127 28.8228 101.346 28.8813C101.594 28.9456 101.813 28.9515 102.004 28.8988C102.195 28.8462 102.344 28.7409 102.464 28.5888L103.476 29.595C103.257 29.8582 102.967 30.022 102.62 30.0864C102.266 30.1507 101.905 30.139 101.523 30.0396C101.091 29.9284 100.688 29.7646 100.313 29.5306C99.938 29.3025 99.6125 29.0217 99.3365 28.6999C99.0605 28.3782 98.8341 28.0096 98.6784 27.6118C98.5157 27.2081 98.4307 26.7869 98.4237 26.3365C98.4166 25.8919 98.4874 25.5058 98.6289 25.1898C98.7775 24.8739 98.9827 24.6282 99.2516 24.4527C99.5205 24.2772 99.8389 24.1778 100.207 24.1485C100.575 24.1193 100.971 24.1661 101.403 24.2948C101.558 24.3416 101.721 24.4001 101.891 24.4761C102.061 24.5522 102.224 24.6458 102.386 24.7511C102.549 24.8564 102.705 24.9851 102.853 25.1255C103.002 25.2718 103.136 25.4297 103.257 25.6111L102.358 26.1025ZM104.021 25.184L105.188 25.5175L105.238 27.5006L107.453 28.1091L107.396 26.1551L108.507 26.4769L108.656 31.701L107.538 31.4202L107.474 29.1387L105.252 28.5478L105.309 30.8645L104.141 30.5719L104.021 25.184ZM111.139 27.2257L112.017 27.4772L114.239 33.105L113.071 32.8125L112.625 31.625L110.75 31.1394L110.375 32.1339L109.172 31.8297L111.139 27.2257ZM111.989 27.1028L111.543 26.4184L111.139 26.8571L110.212 26.588L110.998 25.7866L112.102 26.1142L112.915 27.3719L111.989 27.1028ZM111.592 28.8286L111.054 30.2619L112.236 30.5778L111.592 28.8286ZM118.435 32.286C118.449 32.5785 118.414 32.8359 118.35 33.0582C118.279 33.2805 118.173 33.4678 118.024 33.6082C117.876 33.7486 117.685 33.8422 117.451 33.8831C117.218 33.9241 116.949 33.9124 116.637 33.8305C116.319 33.7486 116.043 33.6316 115.803 33.4677C115.555 33.3039 115.35 33.105 115.18 32.8827C115.01 32.6546 114.883 32.4089 114.791 32.1339C114.699 31.859 114.649 31.5782 114.635 31.2798L114.529 28.2027L115.541 28.4952L115.647 31.508C115.654 31.6659 115.682 31.8122 115.732 31.9584C115.781 32.1047 115.852 32.2334 115.937 32.3504C116.022 32.4674 116.121 32.5668 116.234 32.6487C116.347 32.7306 116.475 32.7891 116.602 32.8242C116.737 32.8593 116.85 32.8652 116.963 32.8359C117.069 32.8125 117.161 32.7599 117.239 32.6838C117.317 32.6078 117.373 32.5142 117.409 32.3913C117.451 32.2743 117.465 32.1398 117.458 31.9818L117.345 29.0041L118.315 29.2849L118.435 32.286Z" fill="white"/>
<path d="M90.1955 19.3631L89.587 19.1876L88.6034 17.6899L88.6741 18.9302L88.0515 18.7547L87.9453 16.7656L88.5609 16.947L89.5374 18.4388L89.4596 17.2102L90.0681 17.3857L90.1955 19.3631Z" fill="white"/>
<path d="M92.6828 20.0623L92.0884 19.8927L92.0248 19.0678L91.1402 18.8163L91.2039 19.647L90.5954 19.4773L90.4609 17.5L91.0624 17.6755L91.119 18.4536L92.0035 18.711L91.9398 17.9388L92.5272 18.1143L92.6828 20.0623Z" fill="white"/>
<path d="M94.4161 20.2071L93.6094 19.979L93.4962 20.3066L92.8594 20.1252L93.5953 18.4228L94.1472 18.5808L95.2228 20.7863L94.593 20.6108L94.4161 20.2071ZM94.1331 18.4872L93.6802 18.3526L93.1707 17.7969L93.7651 17.9724L94.1331 18.4872ZM93.7227 19.6514L94.2463 19.8035L93.9208 19.0488L93.7227 19.6514Z" fill="white"/>
<path d="M97.8456 20.0005L97.1379 19.7957L97.3078 21.3753L96.7346 21.2115L96.5719 19.6319L95.8713 19.4272L95.8359 19.0703L97.8031 19.6436L97.8456 20.0005Z" fill="white"/>
<path d="M100.197 22.1914L99.6446 22.0334L99.5455 21.2261L98.7247 20.9921L98.8167 21.7994L98.2506 21.6415L98.0312 19.7109L98.5903 19.8747L98.6752 20.6353L99.496 20.8751L99.404 20.1204L99.9559 20.2784L100.197 22.1914Z" fill="white"/>
<path d="M102.073 20.8976L102.243 22.1378C102.264 22.2782 102.243 22.3894 102.186 22.4771C102.13 22.5591 102.038 22.6117 101.91 22.6293C101.783 22.6468 101.627 22.6293 101.443 22.5766C101.167 22.5006 100.941 22.3777 100.764 22.208C100.587 22.0384 100.488 21.8512 100.453 21.6406L100.297 20.3828L100.849 20.5408L101.012 21.8044C101.047 22.015 101.174 22.1554 101.401 22.2197C101.514 22.2548 101.599 22.249 101.648 22.2139C101.698 22.1788 101.719 22.1027 101.698 21.9799L101.535 20.7397L102.073 20.8976Z" fill="white"/>
<path d="M104.442 22.5169C104.47 22.7041 104.456 22.8562 104.393 22.9732C104.336 23.096 104.237 23.1721 104.102 23.2072C103.968 23.2423 103.805 23.2364 103.614 23.1779C103.423 23.1253 103.253 23.0375 103.091 22.9205C102.935 22.8035 102.8 22.6631 102.701 22.4993C102.602 22.3355 102.532 22.1659 102.503 21.9845L102.489 21.8792C102.461 21.692 102.482 21.5399 102.539 21.4229C102.602 21.3059 102.701 21.2299 102.836 21.1948C102.977 21.1597 103.14 21.1714 103.324 21.2299C103.508 21.2825 103.685 21.3703 103.841 21.4873C103.996 21.6043 104.124 21.7447 104.23 21.9085C104.329 22.0723 104.393 22.2419 104.421 22.4233L104.442 22.5169ZM103.147 20.8438L103.395 20.9198L103.855 21.3235L103.522 21.2299L103.282 21.0193L103.083 21.107L102.751 21.0076L103.147 20.8438ZM103.89 22.2829C103.862 22.0957 103.805 21.9436 103.72 21.8266C103.635 21.7096 103.522 21.6277 103.388 21.5926C103.119 21.5165 103.006 21.6452 103.034 21.9845L103.055 22.1249C103.083 22.3121 103.14 22.4642 103.225 22.5871C103.31 22.7099 103.423 22.7918 103.572 22.8269C103.706 22.8679 103.805 22.8445 103.862 22.7684C103.918 22.6924 103.94 22.5578 103.911 22.3765L103.89 22.2829ZM103.94 20.8672L104.301 20.9725L103.989 21.2182L103.727 21.1421L103.94 20.8672Z" fill="white"/>
<path d="M106.499 23.3653C106.513 23.494 106.492 23.5993 106.435 23.6753C106.378 23.7572 106.286 23.804 106.159 23.8216C106.032 23.8391 105.883 23.8216 105.706 23.7748C105.416 23.6929 105.183 23.5466 104.991 23.336C104.8 23.1254 104.687 22.8738 104.638 22.5755L104.624 22.4819C104.595 22.2947 104.609 22.1484 104.666 22.0314C104.723 21.9144 104.808 21.8384 104.942 21.8091C105.069 21.774 105.225 21.7857 105.409 21.8384C105.671 21.9144 105.89 22.0373 106.067 22.2011C106.244 22.3649 106.357 22.5579 106.414 22.7744L105.897 22.6223C105.876 22.5053 105.826 22.4175 105.763 22.3473C105.692 22.2771 105.593 22.2245 105.466 22.1894C105.338 22.1543 105.246 22.166 105.197 22.2303C105.147 22.2947 105.14 22.4234 105.161 22.6047L105.183 22.7393C105.211 22.9382 105.267 23.0903 105.338 23.1956C105.409 23.3009 105.515 23.3711 105.657 23.4121C105.777 23.4472 105.869 23.4472 105.918 23.4179C105.975 23.3887 105.996 23.3185 105.982 23.2132L106.499 23.3653Z" fill="white"/>
<path d="M71.9167 11.6054C71.6125 11.5177 71.294 11.5996 71.11 11.7926C71.103 11.7985 71.103 11.8043 71.0959 11.8043L71.0605 11.8453L70.1406 13.0329L71.103 13.3078C71.3931 13.3897 71.6903 13.3137 71.8672 13.144L71.9521 13.0329L72.8437 11.8804L71.9167 11.6054Z" fill="#0037C1" stroke="white" stroke-width="0.178656" stroke-miterlimit="10"/>
<path d="M73.9713 11.6979C73.66 11.6102 73.3274 11.6979 73.1505 11.9027C73.1363 11.9203 73.1222 11.932 73.1151 11.9495L71.5938 13.9151L72.5278 14.1784C72.8462 14.272 73.1929 14.1725 73.3628 13.9619L74.9124 11.9612L73.9713 11.6979Z" fill="#E2783A" stroke="white" stroke-width="0.178656" stroke-miterlimit="10"/>
<path d="M75.4409 12.5966C75.1508 12.5146 74.8394 12.5849 74.6554 12.7604C74.6484 12.7721 74.613 12.8072 74.613 12.8072L73.6719 14.024L74.6059 14.2872C74.9243 14.3808 75.2711 14.2814 75.4409 14.0649L76.3749 12.8598L75.4409 12.5966Z" fill="#6DB357" stroke="white" stroke-width="0.178656" stroke-miterlimit="10"/>
<path d="M64.2718 83.1406L28.1484 84.6207V86.3231L64.2718 84.7962V83.1406Z" fill="#516DAD"/>
<path d="M108.362 43.8944L118.127 45.6846C118.396 45.7314 118.58 45.9127 118.58 46.1233V47.4805C118.58 47.7672 118.233 47.9778 117.865 47.9193L108.1 46.3632C107.824 46.3222 107.633 46.135 107.633 45.9244V44.339C107.626 44.0407 107.987 43.8301 108.362 43.8944Z" fill="#ADD7FF"/>
<path d="M72.3929 38.2772L82.1579 40.0674C82.4268 40.1142 82.6108 40.2955 82.6108 40.5061V41.8634C82.6108 42.15 82.264 42.3606 81.8961 42.3021L72.1311 40.746C71.8551 40.705 71.6641 40.5178 71.6641 40.3072V38.7218C71.6641 38.4235 72.0249 38.2129 72.3929 38.2772Z" fill="#ADD7FF"/>
<path opacity="0.7" d="M170.57 20.8585C170.973 20.5367 171.193 20.1681 171.214 19.7879C171.228 19.4076 171.044 19.0391 170.662 18.7056C170.287 18.378 169.735 18.1031 169.077 17.91C168.412 17.7169 167.655 17.6175 166.891 17.6175H166.749C166.445 16.8862 165.666 16.2252 164.527 15.7338C163.388 15.2424 161.959 14.944 160.444 14.8855C158.93 14.827 157.423 15.0142 156.149 15.4179C154.875 15.8215 153.899 16.4182 153.375 17.1144C151.698 17.208 150.156 17.6058 149.038 18.2201C147.92 18.8402 147.297 19.6358 147.297 20.4665C147.297 20.5952 147.318 20.7239 147.346 20.8526L170.57 20.8585Z" fill="url(#paint60_linear_6267_433222)"/>
<g opacity="0.7">
<path opacity="0.7" d="M260.511 16.4504C260.858 15.8186 260.971 15.1107 260.844 14.4263C260.716 13.7359 260.355 13.0983 259.796 12.5776C259.237 12.0628 258.516 11.6943 257.716 11.5188C256.916 11.3433 256.067 11.3667 255.282 11.5948C255.282 11.5305 255.282 11.472 255.282 11.4076C255.282 10.2259 254.751 9.09096 253.796 8.22514C252.841 7.35933 251.538 6.82112 250.137 6.72752C248.736 6.62807 247.349 6.97907 246.239 7.69864C245.128 8.42405 244.385 9.46537 244.151 10.6295C243.698 10.4423 243.203 10.3429 242.693 10.337C242.191 10.3312 241.689 10.4248 241.229 10.6061C240.769 10.7875 240.372 11.0507 240.054 11.3842C239.736 11.7118 239.509 12.0979 239.396 12.5133C238.702 12.0277 237.839 11.7586 236.941 11.7411C236.042 11.7235 235.164 11.9634 234.443 12.4197C233.728 12.876 233.211 13.5253 232.992 14.2566C232.766 14.9879 232.851 15.7601 233.219 16.4504H260.511Z" fill="url(#paint61_linear_6267_433222)"/>
</g>
</g>
<path d="M-11.1978 89.3602C-11.1978 89.3602 6.41325 85.4018 13.9674 84.4575C64.3291 78.1623 99.3719 74.5965 140.499 71.5878C231.49 64.9328 437 100.865 437 100.865L0.501119 100.865L-12 88.5714L-11.1978 89.3602Z" fill="url(#paint62_linear_6267_433222)"/>
<path d="M-10.1094 96.2328C-10.1094 96.2328 106.082 78.5406 181.658 81.7178C243.899 84.3344 366.654 92.8332 366.654 92.8332V104.641H-10.1094V96.2328Z" fill="url(#paint63_linear_6267_433222)"/>
</g>
<defs>
<linearGradient id="paint0_linear_6267_433222" x1="187.834" y1="8.04598" x2="184.942" y2="17.9906" gradientUnits="userSpaceOnUse">
<stop stop-color="white"/>
<stop offset="1" stop-color="white" stop-opacity="0"/>
</linearGradient>
<linearGradient id="paint1_linear_6267_433222" x1="7.8981" y1="-3.15294" x2="14.6667" y2="28.3024" gradientUnits="userSpaceOnUse">
<stop offset="0.1546" stop-color="#66BAFF"/>
<stop offset="0.3244" stop-color="#85C8FF"/>
<stop offset="0.6225" stop-color="#B6DDFF"/>
<stop offset="0.8496" stop-color="#D5EBFF"/>
<stop offset="0.9771" stop-color="#E0F0FF"/>
</linearGradient>
<linearGradient id="paint2_linear_6267_433222" x1="9.8862" y1="-12.8645" x2="19.0068" y2="22.6638" gradientUnits="userSpaceOnUse">
<stop offset="0.3503" stop-color="#8FCCFF"/>
<stop offset="0.6044" stop-color="#B6DDFF"/>
<stop offset="0.8431" stop-color="#D5EBFF"/>
<stop offset="0.9771" stop-color="#E0F0FF"/>
</linearGradient>
<linearGradient id="paint3_linear_6267_433222" x1="182.598" y1="24.4353" x2="185.929" y2="42.8191" gradientUnits="userSpaceOnUse">
<stop offset="0.2593" stop-color="#66BAFF"/>
<stop offset="0.2732" stop-color="#6ABCFF"/>
<stop offset="0.4297" stop-color="#94CEFF"/>
<stop offset="0.582" stop-color="#B5DDFF"/>
<stop offset="0.7272" stop-color="#CDE8FF"/>
<stop offset="0.8623" stop-color="#DBEEFF"/>
<stop offset="0.9771" stop-color="#E0F0FF"/>
</linearGradient>
<linearGradient id="paint4_linear_6267_433222" x1="185.798" y1="17.1567" x2="192.568" y2="46.743" gradientUnits="userSpaceOnUse">
<stop offset="0.3503" stop-color="#8FCCFF"/>
<stop offset="0.6044" stop-color="#B6DDFF"/>
<stop offset="0.8431" stop-color="#D5EBFF"/>
<stop offset="0.9771" stop-color="#E0F0FF"/>
</linearGradient>
<linearGradient id="paint5_linear_6267_433222" x1="153.269" y1="7.17583" x2="167.51" y2="53.0521" gradientUnits="userSpaceOnUse">
<stop offset="0.3287" stop-color="#73C0FF"/>
<stop offset="0.394" stop-color="#85C8FF"/>
<stop offset="0.5887" stop-color="#B6DEFF"/>
<stop offset="0.737" stop-color="#D5EBFF"/>
<stop offset="0.8202" stop-color="#E0F0FF"/>
</linearGradient>
<linearGradient id="paint6_linear_6267_433222" x1="163.462" y1="12.6037" x2="172.957" y2="47.8069" gradientUnits="userSpaceOnUse">
<stop offset="0.2689" stop-color="#8FCCFF"/>
<stop offset="0.556" stop-color="#B6DDFF"/>
<stop offset="0.8257" stop-color="#D5EBFF"/>
<stop offset="0.9771" stop-color="#E0F0FF"/>
</linearGradient>
<linearGradient id="paint7_linear_6267_433222" x1="195.76" y1="-5.70892" x2="207.815" y2="46.9766" gradientUnits="userSpaceOnUse">
<stop offset="0.3503" stop-color="#8FCCFF"/>
<stop offset="0.6044" stop-color="#B6DDFF"/>
<stop offset="0.8431" stop-color="#D5EBFF"/>
<stop offset="0.9771" stop-color="#E0F0FF"/>
</linearGradient>
<linearGradient id="paint8_linear_6267_433222" x1="219.73" y1="12.1597" x2="230.879" y2="60.8877" gradientUnits="userSpaceOnUse">
<stop offset="0.3503" stop-color="#8FCCFF"/>
<stop offset="0.6044" stop-color="#B6DDFF"/>
<stop offset="0.8431" stop-color="#D5EBFF"/>
<stop offset="0.9771" stop-color="#E0F0FF"/>
</linearGradient>
<linearGradient id="paint9_linear_6267_433222" x1="95.8396" y1="3.09054" x2="99.736" y2="24.5991" gradientUnits="userSpaceOnUse">
<stop offset="0.2593" stop-color="#66BAFF"/>
<stop offset="0.2732" stop-color="#6ABCFF"/>
<stop offset="0.4297" stop-color="#94CEFF"/>
<stop offset="0.582" stop-color="#B5DDFF"/>
<stop offset="0.7272" stop-color="#CDE8FF"/>
<stop offset="0.8623" stop-color="#DBEEFF"/>
<stop offset="0.9771" stop-color="#E0F0FF"/>
</linearGradient>
<linearGradient id="paint10_linear_6267_433222" x1="98.0169" y1="-4.38391" x2="105.588" y2="28.705" gradientUnits="userSpaceOnUse">
<stop offset="0.3503" stop-color="#8FCCFF"/>
<stop offset="0.6044" stop-color="#B6DDFF"/>
<stop offset="0.8431" stop-color="#D5EBFF"/>
<stop offset="0.9771" stop-color="#E0F0FF"/>
</linearGradient>
<linearGradient id="paint11_linear_6267_433222" x1="33.424" y1="9.28038" x2="36.6927" y2="35.9367" gradientUnits="userSpaceOnUse">
<stop offset="0.3237" stop-color="#73B7FF"/>
<stop offset="0.3779" stop-color="#85C0FF"/>
<stop offset="0.5397" stop-color="#B6DAFF"/>
<stop offset="0.6628" stop-color="#D5EAFF"/>
<stop offset="0.732" stop-color="#E0F0FF"/>
</linearGradient>
<linearGradient id="paint12_linear_6267_433222" x1="35.9942" y1="-2.90378" x2="40.9923" y2="34.1355" gradientUnits="userSpaceOnUse">
<stop offset="0.3503" stop-color="#8FC5FF"/>
<stop offset="0.561" stop-color="#B6DAFF"/>
<stop offset="0.759" stop-color="#D5EAFF"/>
<stop offset="0.8701" stop-color="#E0F0FF"/>
</linearGradient>
<linearGradient id="paint13_linear_6267_433222" x1="58.8257" y1="-4.87897" x2="65.5943" y2="26.5764" gradientUnits="userSpaceOnUse">
<stop offset="0.1546" stop-color="#66BAFF"/>
<stop offset="0.3244" stop-color="#85C8FF"/>
<stop offset="0.6225" stop-color="#B6DDFF"/>
<stop offset="0.8496" stop-color="#D5EBFF"/>
<stop offset="0.9771" stop-color="#E0F0FF"/>
</linearGradient>
<linearGradient id="paint14_linear_6267_433222" x1="60.8209" y1="-14.5905" x2="69.9416" y2="20.9378" gradientUnits="userSpaceOnUse">
<stop offset="0.3503" stop-color="#8FCCFF"/>
<stop offset="0.6044" stop-color="#B6DDFF"/>
<stop offset="0.8431" stop-color="#D5EBFF"/>
<stop offset="0.9771" stop-color="#E0F0FF"/>
</linearGradient>
<linearGradient id="paint15_linear_6267_433222" x1="41.556" y1="-7.12246" x2="51.6137" y2="38.2604" gradientUnits="userSpaceOnUse">
<stop offset="0.3774" stop-color="#73B7FF"/>
<stop offset="0.4245" stop-color="#85C0FF"/>
<stop offset="0.565" stop-color="#B6DAFF"/>
<stop offset="0.6719" stop-color="#D5EAFF"/>
<stop offset="0.732" stop-color="#E0F0FF"/>
</linearGradient>
<linearGradient id="paint16_linear_6267_433222" x1="51.7887" y1="-4.1664" x2="58.3099" y2="31.1573" gradientUnits="userSpaceOnUse">
<stop offset="0.3503" stop-color="#8FC5FF"/>
<stop offset="0.5712" stop-color="#B6DAFF"/>
<stop offset="0.7787" stop-color="#D5EAFF"/>
<stop offset="0.8952" stop-color="#E0F0FF"/>
</linearGradient>
<linearGradient id="paint17_linear_6267_433222" x1="75.0833" y1="-2.92205" x2="89.3244" y2="42.9542" gradientUnits="userSpaceOnUse">
<stop offset="0.3287" stop-color="#73C0FF"/>
<stop offset="0.3782" stop-color="#85C8FF"/>
<stop offset="0.5259" stop-color="#B6DEFF"/>
<stop offset="0.6383" stop-color="#D5EBFF"/>
<stop offset="0.7014" stop-color="#E0F0FF"/>
</linearGradient>
<linearGradient id="paint18_linear_6267_433222" x1="85.2837" y1="2.5058" x2="91.9087" y2="27.0681" gradientUnits="userSpaceOnUse">
<stop offset="0.3503" stop-color="#8FCCFF"/>
<stop offset="0.6044" stop-color="#B6DDFF"/>
<stop offset="0.8431" stop-color="#D5EBFF"/>
<stop offset="0.9771" stop-color="#E0F0FF"/>
</linearGradient>
<linearGradient id="paint19_linear_6267_433222" x1="127.196" y1="5.08261" x2="130.465" y2="31.7388" gradientUnits="userSpaceOnUse">
<stop offset="0.3237" stop-color="#73B7FF"/>
<stop offset="0.3779" stop-color="#85C0FF"/>
<stop offset="0.5397" stop-color="#B6DAFF"/>
<stop offset="0.6628" stop-color="#D5EAFF"/>
<stop offset="0.732" stop-color="#E0F0FF"/>
</linearGradient>
<linearGradient id="paint20_linear_6267_433222" x1="129.766" y1="-7.10161" x2="134.764" y2="29.9377" gradientUnits="userSpaceOnUse">
<stop offset="0.3503" stop-color="#8FC5FF"/>
<stop offset="0.561" stop-color="#B6DAFF"/>
<stop offset="0.759" stop-color="#D5EAFF"/>
<stop offset="0.8701" stop-color="#E0F0FF"/>
</linearGradient>
<linearGradient id="paint21_linear_6267_433222" x1="128.744" y1="-8.16212" x2="142.935" y2="55.8734" gradientUnits="userSpaceOnUse">
<stop offset="0.3774" stop-color="#73B7FF"/>
<stop offset="0.4245" stop-color="#85C0FF"/>
<stop offset="0.565" stop-color="#B6DAFF"/>
<stop offset="0.6719" stop-color="#D5EAFF"/>
<stop offset="0.732" stop-color="#E0F0FF"/>
</linearGradient>
<linearGradient id="paint22_linear_6267_433222" x1="140.115" y1="-3.15811" x2="149.143" y2="45.7448" gradientUnits="userSpaceOnUse">
<stop offset="0.3503" stop-color="#8FC5FF"/>
<stop offset="0.5712" stop-color="#B6DAFF"/>
<stop offset="0.7787" stop-color="#D5EAFF"/>
<stop offset="0.8952" stop-color="#E0F0FF"/>
</linearGradient>
<linearGradient id="paint23_linear_6267_433222" x1="161.868" y1="60.0835" x2="231.299" y2="66.4766" gradientUnits="userSpaceOnUse">
<stop stop-color="#B4DBFE"/>
<stop offset="1" stop-color="#DFF0FE"/>
</linearGradient>
<linearGradient id="paint24_linear_6267_433222" x1="140.386" y1="48.5555" x2="162.499" y2="48.5555" gradientUnits="userSpaceOnUse">
<stop offset="0.1994" stop-color="#C1DDFE"/>
<stop offset="0.4317" stop-color="#ECF6FE"/>
<stop offset="0.8422" stop-color="#B6D7FE"/>
</linearGradient>
<linearGradient id="paint25_linear_6267_433222" x1="161.596" y1="62.4566" x2="183.244" y2="65.9642" gradientUnits="userSpaceOnUse">
<stop offset="0.0995" stop-color="#ECF6FE"/>
<stop offset="0.9138" stop-color="#8ABFF7"/>
</linearGradient>
<linearGradient id="paint26_linear_6267_433222" x1="166.002" y1="62.8029" x2="152.724" y2="62.8029" gradientUnits="userSpaceOnUse">
<stop offset="0.1994" stop-color="#C1DDFE"/>
<stop offset="0.8422" stop-color="#9BC0E8"/>
</linearGradient>
<radialGradient id="paint27_radial_6267_433222" cx="0" cy="0" r="1" gradientUnits="userSpaceOnUse" gradientTransform="translate(161.875 58.5879) scale(0.274155 0.174918)">
<stop stop-color="#F9FCFE"/>
<stop offset="0.1169" stop-color="#E7F0FE"/>
<stop offset="0.3524" stop-color="#C8DDFE"/>
<stop offset="0.5823" stop-color="#B2CEFE"/>
<stop offset="0.8019" stop-color="#A5C6FE"/>
<stop offset="1" stop-color="#A0C3FE"/>
</radialGradient>
<linearGradient id="paint28_linear_6267_433222" x1="125.886" y1="64.3845" x2="157.536" y2="64.3845" gradientUnits="userSpaceOnUse">
<stop offset="0.1994" stop-color="#AED8FE"/>
<stop offset="0.3818" stop-color="#D9EDFE"/>
<stop offset="0.5292" stop-color="#D4EAFE"/>
<stop offset="0.7057" stop-color="#C5E1FE"/>
<stop offset="0.8963" stop-color="#ADD3FE"/>
<stop offset="0.9821" stop-color="#A0CBFE"/>
</linearGradient>
<linearGradient id="paint29_linear_6267_433222" x1="115.867" y1="47.2825" x2="134.367" y2="47.2825" gradientUnits="userSpaceOnUse">
<stop offset="0.1994" stop-color="#A8CFFE"/>
<stop offset="0.4317" stop-color="#D3EAFE"/>
<stop offset="0.8422" stop-color="#9DCAFE"/>
</linearGradient>
<linearGradient id="paint30_linear_6267_433222" x1="126.897" y1="65.1684" x2="148.972" y2="68.7453" gradientUnits="userSpaceOnUse">
<stop offset="0.0995" stop-color="#D3EAFE"/>
<stop offset="0.9138" stop-color="#88BAF0"/>
</linearGradient>
<linearGradient id="paint31_linear_6267_433222" x1="130.162" y1="65.6662" x2="118.559" y2="65.6662" gradientUnits="userSpaceOnUse">
<stop offset="0.1994" stop-color="#A8D0FE"/>
<stop offset="0.8422" stop-color="#84B4E8"/>
</linearGradient>
<linearGradient id="paint32_linear_6267_433222" x1="131.462" y1="68.5881" x2="140.545" y2="68.5881" gradientUnits="userSpaceOnUse">
<stop stop-color="#ECF5FE"/>
<stop offset="0.7055" stop-color="#C9E1FE"/>
</linearGradient>
<linearGradient id="paint33_linear_6267_433222" x1="128.454" y1="62.4918" x2="135.817" y2="68.6233" gradientUnits="userSpaceOnUse">
<stop offset="0.5754" stop-color="#718ED1"/>
<stop offset="0.8213" stop-color="#AAD7FE"/>
<stop offset="0.9742" stop-color="#718ED1"/>
</linearGradient>
<linearGradient id="paint34_linear_6267_433222" x1="131.462" y1="68.5881" x2="140.129" y2="68.5881" gradientUnits="userSpaceOnUse">
<stop stop-color="#ECF5FE"/>
<stop offset="0.7055" stop-color="#C9E1FE"/>
</linearGradient>
<linearGradient id="paint35_linear_6267_433222" x1="140.859" y1="64.0594" x2="132.224" y2="69.6806" gradientUnits="userSpaceOnUse">
<stop offset="0.1994" stop-color="#A8D5FE"/>
<stop offset="0.3818" stop-color="#D3EAFE"/>
<stop offset="0.5085" stop-color="#CEE7FE"/>
<stop offset="0.6602" stop-color="#BFDEFE"/>
<stop offset="0.8241" stop-color="#A7D0FE"/>
<stop offset="0.9821" stop-color="#89BEFE"/>
</linearGradient>
<linearGradient id="paint36_linear_6267_433222" x1="140.275" y1="70.1399" x2="132.541" y2="75.5502" gradientUnits="userSpaceOnUse">
<stop offset="0.1994" stop-color="#A8D5FE"/>
<stop offset="0.3818" stop-color="#D3EAFE"/>
<stop offset="0.5085" stop-color="#CEE7FE"/>
<stop offset="0.6602" stop-color="#BFDEFE"/>
<stop offset="0.8241" stop-color="#A7D0FE"/>
<stop offset="0.9821" stop-color="#89BEFE"/>
</linearGradient>
<radialGradient id="paint37_radial_6267_433222" cx="0" cy="0" r="1" gradientUnits="userSpaceOnUse" gradientTransform="translate(126.394 60.6442) scale(0.251698 0.208088)">
<stop stop-color="#E0F0FE"/>
<stop offset="0.1169" stop-color="#CEE4FE"/>
<stop offset="0.3524" stop-color="#AFCEFE"/>
<stop offset="0.5823" stop-color="#99BFFE"/>
<stop offset="0.8019" stop-color="#8CB6FE"/>
<stop offset="1" stop-color="#87B3FE"/>
</radialGradient>
<linearGradient id="paint38_linear_6267_433222" x1="6.4682" y1="60.3277" x2="30.3025" y2="64.1895" gradientUnits="userSpaceOnUse">
<stop offset="0.0995" stop-color="#D3EAFE"/>
<stop offset="0.9138" stop-color="#88BAF0"/>
</linearGradient>
<linearGradient id="paint39_linear_6267_433222" x1="23.2501" y1="35.9163" x2="121.498" y2="35.9163" gradientUnits="userSpaceOnUse">
<stop offset="0.1737" stop-color="#1D4298"/>
<stop offset="0.4317" stop-color="#D3EAFE"/>
<stop offset="0.7055" stop-color="#3F64BA"/>
</linearGradient>
<linearGradient id="paint40_linear_6267_433222" x1="23.2501" y1="36.3987" x2="121.498" y2="36.3987" gradientUnits="userSpaceOnUse">
<stop offset="0.1737" stop-color="#DDEFFE"/>
<stop offset="0.4317" stop-color="#FEFEFE"/>
<stop offset="0.8654" stop-color="#AAD1FE"/>
</linearGradient>
<linearGradient id="paint41_linear_6267_433222" x1="23.2431" y1="43.8743" x2="121.491" y2="43.8743" gradientUnits="userSpaceOnUse">
<stop offset="0.1737" stop-color="#7BBFFF"/>
<stop offset="0.3906" stop-color="#CFE8FF"/>
<stop offset="0.915" stop-color="#61B2FD"/>
</linearGradient>
<linearGradient id="paint42_linear_6267_433222" x1="23.2431" y1="63.8034" x2="121.491" y2="63.8034" gradientUnits="userSpaceOnUse">
<stop offset="0.2459" stop-color="#EBF5FE"/>
<stop offset="0.4489" stop-color="#F3F8FE"/>
<stop offset="0.8387" stop-color="#BFDBFE"/>
</linearGradient>
<linearGradient id="paint43_linear_6267_433222" x1="77.0938" y1="47.5916" x2="114.282" y2="71.9868" gradientUnits="userSpaceOnUse">
<stop offset="0.5754" stop-color="#4D75D1"/>
<stop offset="0.8213" stop-color="#AAD7FE"/>
<stop offset="0.9742" stop-color="#4D75D1"/>
</linearGradient>
<linearGradient id="paint44_linear_6267_433222" x1="74.58" y1="52.8721" x2="108.84" y2="85.8722" gradientUnits="userSpaceOnUse">
<stop stop-color="#ECF5FE"/>
<stop offset="0.7055" stop-color="#C9E1FE"/>
</linearGradient>
<linearGradient id="paint45_linear_6267_433222" x1="47.2013" y1="55.3905" x2="35.9726" y2="64.8072" gradientUnits="userSpaceOnUse">
<stop offset="0.5754" stop-color="#4D75D1"/>
<stop offset="0.8213" stop-color="#AAD7FE"/>
<stop offset="0.9742" stop-color="#4D75D1"/>
</linearGradient>
<linearGradient id="paint46_linear_6267_433222" x1="64.0676" y1="48.3823" x2="33.79" y2="90.5189" gradientUnits="userSpaceOnUse">
<stop stop-color="#ECF5FE"/>
<stop offset="0.7055" stop-color="#C9E3FE"/>
</linearGradient>
<linearGradient id="paint47_linear_6267_433222" x1="64.326" y1="72.869" x2="12.8216" y2="79.4653" gradientUnits="userSpaceOnUse">
<stop stop-color="#D3EAFE"/>
<stop offset="0.8306" stop-color="#ADD5FE"/>
</linearGradient>
<linearGradient id="paint48_linear_6267_433222" x1="65.6404" y1="73.0862" x2="152.02" y2="82.8509" gradientUnits="userSpaceOnUse">
<stop offset="0.0358" stop-color="#D3EAFE"/>
<stop offset="0.2463" stop-color="#CAE5FE"/>
<stop offset="0.5871" stop-color="#B2D8FE"/>
<stop offset="0.6492" stop-color="#ADD5FE"/>
</linearGradient>
<linearGradient id="paint49_linear_6267_433222" x1="43.541" y1="65.5984" x2="44.497" y2="65.5984" gradientUnits="userSpaceOnUse">
<stop offset="0.5452" stop-color="#98C3FE"/>
<stop offset="0.7105" stop-color="#D3EAFE"/>
<stop offset="0.9073" stop-color="#89B6FE"/>
</linearGradient>
<linearGradient id="paint50_linear_6267_433222" x1="27.267" y1="58.043" x2="43.5354" y2="58.043" gradientUnits="userSpaceOnUse">
<stop offset="0.012" stop-color="#D6EBFE"/>
<stop offset="0.231" stop-color="#CCE6FF"/>
<stop offset="0.416" stop-color="#E9F4FE"/>
<stop offset="0.6512" stop-color="#D5EAFE"/>
<stop offset="1" stop-color="#ABD5FF"/>
</linearGradient>
<linearGradient id="paint51_linear_6267_433222" x1="27.267" y1="67.3043" x2="43.5354" y2="67.3043" gradientUnits="userSpaceOnUse">
<stop offset="0.012" stop-color="#D6EBFE"/>
<stop offset="0.231" stop-color="#CCE6FF"/>
<stop offset="0.416" stop-color="#E9F4FE"/>
<stop offset="0.6512" stop-color="#D5EAFE"/>
<stop offset="1" stop-color="#ABD5FF"/>
</linearGradient>
<linearGradient id="paint52_linear_6267_433222" x1="44.4871" y1="57.979" x2="64.2735" y2="57.979" gradientUnits="userSpaceOnUse">
<stop offset="0.012" stop-color="#D6EBFE"/>
<stop offset="0.231" stop-color="#CCE6FF"/>
<stop offset="0.416" stop-color="#E9F4FE"/>
<stop offset="0.6512" stop-color="#D5EAFE"/>
<stop offset="1" stop-color="#ABD5FF"/>
</linearGradient>
<linearGradient id="paint53_linear_6267_433222" x1="44.4871" y1="66.8974" x2="64.2534" y2="66.8974" gradientUnits="userSpaceOnUse">
<stop offset="0.012" stop-color="#D6EBFE"/>
<stop offset="0.231" stop-color="#CCE6FF"/>
<stop offset="0.416" stop-color="#E9F4FE"/>
<stop offset="0.6512" stop-color="#D5EAFE"/>
<stop offset="1" stop-color="#ABD5FF"/>
</linearGradient>
<linearGradient id="paint54_linear_6267_433222" x1="97.3674" y1="65.6679" x2="98.2721" y2="65.6679" gradientUnits="userSpaceOnUse">
<stop offset="0.5452" stop-color="#98C3FE"/>
<stop offset="0.7105" stop-color="#D3EAFE"/>
<stop offset="0.9073" stop-color="#89B6FE"/>
</linearGradient>
<linearGradient id="paint55_linear_6267_433222" x1="73.5692" y1="58.8947" x2="97.3674" y2="58.8947" gradientUnits="userSpaceOnUse">
<stop offset="0.012" stop-color="#D6EBFE"/>
<stop offset="0.231" stop-color="#CCE6FF"/>
<stop offset="0.416" stop-color="#E9F4FE"/>
<stop offset="0.6512" stop-color="#D5EAFE"/>
<stop offset="1" stop-color="#ABD5FF"/>
</linearGradient>
<linearGradient id="paint56_linear_6267_433222" x1="73.5692" y1="69.7932" x2="97.3674" y2="69.7932" gradientUnits="userSpaceOnUse">
<stop offset="0.012" stop-color="#D6EBFE"/>
<stop offset="0.231" stop-color="#CCE6FF"/>
<stop offset="0.416" stop-color="#E9F4FE"/>
<stop offset="0.6512" stop-color="#D5EAFE"/>
<stop offset="1" stop-color="#ABD5FF"/>
</linearGradient>
<linearGradient id="paint57_linear_6267_433222" x1="98.2648" y1="59.4433" x2="116.283" y2="59.4433" gradientUnits="userSpaceOnUse">
<stop offset="0.012" stop-color="#D6EBFE"/>
<stop offset="0.231" stop-color="#CCE6FF"/>
<stop offset="0.416" stop-color="#E9F4FE"/>
<stop offset="0.6512" stop-color="#D5EAFE"/>
<stop offset="1" stop-color="#ABD5FF"/>
</linearGradient>
<linearGradient id="paint58_linear_6267_433222" x1="98.2648" y1="64.5985" x2="118.214" y2="64.5985" gradientUnits="userSpaceOnUse">
<stop offset="0.012" stop-color="#D6EBFE"/>
<stop offset="0.231" stop-color="#CCE6FF"/>
<stop offset="0.416" stop-color="#E9F4FE"/>
<stop offset="0.6512" stop-color="#D5EAFE"/>
<stop offset="1" stop-color="#ABD5FF"/>
</linearGradient>
<linearGradient id="paint59_linear_6267_433222" x1="98.2648" y1="69.6345" x2="118.214" y2="69.6345" gradientUnits="userSpaceOnUse">
<stop offset="0.012" stop-color="#D6EBFE"/>
<stop offset="0.231" stop-color="#CCE6FF"/>
<stop offset="0.416" stop-color="#E9F4FE"/>
<stop offset="0.6512" stop-color="#D5EAFE"/>
<stop offset="1" stop-color="#ABD5FF"/>
</linearGradient>
<linearGradient id="paint60_linear_6267_433222" x1="160.856" y1="16.4202" x2="158.335" y2="24.7284" gradientUnits="userSpaceOnUse">
<stop stop-color="white"/>
<stop offset="1" stop-color="white" stop-opacity="0"/>
</linearGradient>
<linearGradient id="paint61_linear_6267_433222" x1="250.124" y1="9.78683" x2="244.827" y2="22.3372" gradientUnits="userSpaceOnUse">
<stop stop-color="white"/>
<stop offset="1" stop-color="white" stop-opacity="0"/>
</linearGradient>
<linearGradient id="paint62_linear_6267_433222" x1="381.962" y1="67.2678" x2="70.1475" y2="231.455" gradientUnits="userSpaceOnUse">
<stop stop-color="#A8D2FF"/>
<stop offset="0.1868" stop-color="#AED5FF"/>
<stop offset="0.4256" stop-color="#BDDDFF"/>
<stop offset="0.6927" stop-color="#D8EBFF"/>
<stop offset="0.9785" stop-color="#FCFDFF"/>
<stop offset="1" stop-color="white"/>
</linearGradient>
<linearGradient id="paint63_linear_6267_433222" x1="8.17086" y1="110.574" x2="1506.8" y2="-10.5231" gradientUnits="userSpaceOnUse">
<stop offset="0.00280389" stop-color="#BDDBFF"/>
<stop offset="0.110128" stop-color="#C1DDFF"/>
<stop offset="0.186155" stop-color="#CDE4FF"/>
<stop offset="0.287539" stop-color="#EAEFFA"/>
<stop offset="1" stop-color="#D3E6FC"/>
</linearGradient>
<clipPath id="clip0_6267_433222">
<rect width="450" height="84" fill="white"/>
</clipPath>
</defs>
</svg>
